<svg xmlns="http://www.w3.org/2000/svg" viewBox="0 0 64 64" width="64" height="64">
  <defs>
    <linearGradient id="grad" x1="0%" y1="0%" x2="100%" y2="100%">
      <stop offset="0%" style="stop-color:#6366f1;stop-opacity:1" />
      <stop offset="100%" style="stop-color:#06b6d4;stop-opacity:1" />
    </linearGradient>
    <linearGradient id="grad2" x1="0%" y1="0%" x2="100%" y2="100%">
      <stop offset="0%" style="stop-color:#818cf8;stop-opacity:1" />
      <stop offset="100%" style="stop-color:#22d3ee;stop-opacity:1" />
    </linearGradient>
  </defs>
  <!-- Rounded background -->
  <rect x="2" y="2" width="60" height="60" rx="16" fill="url(#grad)"/>
  <!-- Medical cross -->
  <rect x="24" y="12" width="16" height="40" rx="4" fill="white" opacity="0.95"/>
  <rect x="12" y="24" width="40" height="16" rx="4" fill="white" opacity="0.95"/>
  <!-- Heart overlay -->
  <path d="M32 44 C32 44, 22 36, 22 30 C22 26, 24.5 24, 27 24 C28.5 24, 30 25, 32 27 C34 25, 35.5 24, 37 24 C39.5 24, 42 26, 42 30 C42 36, 32 44, 32 44 Z" fill="url(#grad2)" opacity="0.85"/>
  <!-- Pulse line -->
  <path d="M8 32 L16 32 L20 26 L24 38 L28 32 L36 32 L40 28 L44 36 L48 32 L56 32" stroke="white" stroke-width="2.5" fill="none" stroke-linecap="round" stroke-linejoin="round" opacity="0.7"/>
</svg>
